<svg xmlns="http://www.w3.org/2000/svg" xmlns:xlink="http://www.w3.org/1999/xlink" version="1.1" id="icon" x="0px" y="0px" width="100.0px" height="100px" viewBox="-4.2 -14.084 101.0 136.35" enable-background="new -9.25 -3.984 101 101" xml:space="preserve">
<path d="M84.119,17.362c-1.063-7.081-6.621-12.65-13.703-13.713C61.164,2.261,51.378,1.516,41.25,1.516  c-10.127,0-19.915,0.745-29.165,2.133c-7.09,1.063-12.64,6.624-13.703,13.713C-3.006,26.611-3.75,36.393-3.75,46.517  c0,10.124,0.744,19.907,2.131,29.153c1.062,7.082,6.621,12.65,13.703,13.715c9.25,1.385,19.038,2.131,29.165,2.131  c10.124,0,19.905-0.742,29.155-2.131c7.08-1.061,12.65-6.621,13.713-13.703c1.388-9.25,2.133-19.037,2.133-29.165  C86.25,36.393,85.505,26.611,84.119,17.362z M15.731,82.428c-4.099,0-7.42-3.322-7.42-7.422s3.321-7.42,7.42-7.42  c4.098,0,7.419,3.32,7.419,7.42S19.829,82.428,15.731,82.428z M47.785,78.969H34.716c-2.188,0-3.961-1.773-3.961-3.963  c0-2.188,1.773-3.959,3.961-3.959h13.069c2.188,0,3.958,1.771,3.958,3.959C51.743,77.195,49.973,78.969,47.785,78.969z   M66.77,82.428c-4.099,0-7.422-3.322-7.422-7.422s3.323-7.42,7.422-7.42c4.1,0,7.42,3.32,7.42,7.42S70.868,82.428,66.77,82.428z   M74.176,51.832c-0.813,3.797-5.072,6.777-10.488,7.348c-7.076,0.744-14.559,1.143-22.301,1.143c-7.749,0-15.235-0.398-22.312-1.143  c-5.417-0.57-9.67-3.557-10.482-7.354c-1.062-4.961-1.63-10.208-1.63-15.636c0-5.428,0.568-10.673,1.63-15.633  c0.813-3.802,5.059-6.783,10.482-7.354c7.076-0.744,14.563-1.143,22.312-1.143c7.748,0,15.233,0.398,22.309,1.143  c5.418,0.57,9.671,3.557,10.484,7.354c1.061,4.96,1.629,10.205,1.629,15.633C75.809,41.621,75.236,46.87,74.176,51.832z"/>
<text x="-9.25" y="114.691" font-size="5.05" font-weight="bold" font-family="Helvetica Neue, Helvetica, Arial-Unicode, Arial, Sans-serif" fill="#000000">Created by John T. Garcia</text><text x="-9.25" y="119.741" font-size="5.05" font-weight="bold" font-family="Helvetica Neue, Helvetica, Arial-Unicode, Arial, Sans-serif" fill="#000000">from the Noun Project</text></svg>